<svg width="41" height="26" viewBox="0 0 41 26" fill="none" xmlns="http://www.w3.org/2000/svg">
<g clip-path="url(#clip0_7895_31525)">
<path d="M37.7814 7.31714C37.7957 7.49555 37.8171 7.64646 37.8182 7.79754C37.8222 8.37222 37.8251 8.94708 37.816 9.52168C37.8139 9.66309 37.8644 9.71516 37.9939 9.72378C38.2207 9.73886 38.4471 9.76878 38.674 9.77309C39.1651 9.78267 39.4864 9.54794 39.619 9.07655C39.7401 8.64639 39.7373 8.20948 39.623 7.77798C39.5548 7.52007 39.4142 7.29557 39.1508 7.21023C38.6753 7.05625 38.2132 7.14462 37.7814 7.31714ZM40.9975 8.87326C40.9697 8.98804 40.9434 9.10313 40.914 9.21749C40.6385 10.2897 39.758 10.9379 38.6053 10.9085C38.1659 10.8973 37.7362 10.8318 37.3139 10.6932C37.1713 10.6465 36.9926 10.7092 36.8306 10.7234C36.6159 10.742 36.4014 10.7784 36.1869 10.7789C34.1703 10.7832 32.1536 10.7814 30.1369 10.7814H29.9164C29.967 10.4484 30.0144 10.1352 30.0602 9.8321H32.5929C32.5771 9.85125 32.5898 9.843 32.5897 9.83509C32.5791 9.21529 32.5724 8.59534 32.5521 7.97589C32.5482 7.86062 32.4986 7.74314 32.4534 7.63355C32.291 7.23961 31.994 7.03761 31.5656 7.03606C31.2295 7.03481 30.8934 7.03564 30.5573 7.03554C30.4966 7.03554 30.4359 7.03554 30.3563 7.03554C30.4007 6.72332 30.4386 6.4368 30.4861 6.1519C30.4918 6.11747 30.5502 6.06532 30.5834 6.06591C31.1521 6.07656 31.728 6.04319 32.2877 6.12233C33.1259 6.24087 33.7309 6.91095 33.877 7.80405C33.9309 8.13349 33.9351 8.4722 33.9464 8.80725C33.9576 9.13067 33.9488 9.45479 33.9488 9.79093C34.0094 9.79548 34.0585 9.80242 34.1075 9.80242C34.8367 9.80314 35.5659 9.79847 36.295 9.80661C36.4454 9.80828 36.5025 9.74257 36.5177 9.61473C36.5284 9.52458 36.5298 9.43289 36.53 9.34186C36.531 8.73233 36.5296 8.12276 36.5307 7.51322C36.5319 6.80371 36.8217 6.39315 37.5001 6.18178C37.7695 6.09786 38.0534 6.06004 38.3306 6.00122H38.9119C38.9552 6.01262 38.998 6.02881 39.0422 6.03474C39.9707 6.1591 40.6483 6.75137 40.8955 7.65852C40.934 7.80006 40.9637 7.94403 40.9975 8.08685V8.87326Z" fill="#231F20"/>
<path d="M29.4383 6.08355C29.3893 6.40349 29.3421 6.71226 29.2915 7.04336H29.0872C28.2324 7.04336 27.3778 7.04271 26.5231 7.04406C26.4037 7.04423 26.2831 7.04584 26.1649 7.06057C25.8155 7.1041 25.6303 7.32216 25.6464 7.66083C25.6623 7.99582 25.8714 8.21806 26.2091 8.22744C26.6418 8.23937 27.0752 8.22674 27.508 8.23616C27.7005 8.24034 27.8962 8.25475 28.0839 8.29497C28.8005 8.44853 29.2554 9.02166 29.2448 9.75555C29.2422 9.94192 29.2226 10.1326 29.1778 10.3131C29.0322 10.8996 28.6031 11.1823 28.0474 11.2918C27.7644 11.3473 27.4714 11.3749 27.1828 11.3755C25.2855 11.3795 23.388 11.3836 21.4908 11.3652C20.3075 11.3538 19.5246 10.5852 19.4575 9.40591C19.4245 8.82595 19.3973 8.24387 19.559 7.67465C19.8263 6.7337 20.5612 6.16064 21.5411 6.14328C22.1385 6.13268 22.7361 6.14131 23.3465 6.14131C23.2985 6.46878 23.2525 6.78242 23.2033 7.11787C22.9735 7.11787 22.747 7.11741 22.5207 7.118C22.2985 7.1186 22.076 7.11397 21.8541 7.12297C21.4525 7.13931 21.1528 7.33222 21.0008 7.70128C20.9158 7.90772 20.8574 8.13874 20.8503 8.36071C20.837 8.77416 20.8316 9.19491 20.8936 9.60186C20.9653 10.0724 21.2886 10.3515 21.7611 10.3801C22.3176 10.4136 22.8768 10.4047 23.4349 10.4066C24.6599 10.411 25.8849 10.411 27.11 10.4115C27.2006 10.4115 27.2932 10.4095 27.3819 10.3928C27.7524 10.3235 27.9647 10.05 27.934 9.68983C27.9037 9.33295 27.6485 9.10245 27.2674 9.0958C26.732 9.08647 26.1958 9.09865 25.6614 9.07091C25.0273 9.03804 24.5679 8.68128 24.4027 8.13824C24.2114 7.50924 24.3863 6.84673 24.844 6.49017C25.2092 6.20567 25.6417 6.08782 26.0897 6.0797C27.1834 6.05991 28.2774 6.06904 29.3714 6.06716C29.3876 6.06712 29.4038 6.07483 29.4383 6.08355Z" fill="#231F20"/>
<path d="M39.1998 17.592C39.1984 17.585 39.1969 17.5781 39.1955 17.5711C38.9499 17.6055 38.6973 17.6151 38.4607 17.6813C38.2153 17.75 38.1014 17.9805 38.1236 18.248C38.1427 18.4772 38.279 18.6629 38.5265 18.686C38.7808 18.7096 39.0461 18.6886 39.2988 18.6436C39.7219 18.5682 39.7219 18.5536 39.718 18.1197C39.7164 17.9518 39.76 17.73 39.6722 17.6327C39.595 17.5468 39.3633 17.6001 39.1998 17.592ZM40.9967 19.6766C40.5716 19.5997 40.1476 19.5155 39.7206 19.4504C39.602 19.4323 39.4732 19.462 39.3518 19.4844C38.8336 19.5803 38.3162 19.6419 37.7954 19.5044C37.1773 19.3412 36.8261 18.9062 36.8049 18.2765C36.7831 17.6237 37.0846 17.1559 37.7155 16.9797C38.0885 16.8754 38.4858 16.8486 38.8744 16.8126C39.139 16.7882 39.4076 16.8079 39.6712 16.8079C39.799 16.2661 39.5493 15.9278 39.0108 15.9183C38.4178 15.9081 37.8483 16.0416 37.2908 16.2335C37.2381 16.2517 37.1841 16.2669 37.1145 16.2886C37.0667 15.9643 37.0206 15.652 36.9726 15.3276C37.894 15.0322 38.8095 14.7664 39.7852 14.9611C40.4973 15.1033 40.8753 15.5134 40.9664 16.2287C40.972 16.2731 40.9864 16.3163 40.9967 16.3602V19.6766Z" fill="#231F20"/>
<path d="M26.042 19.5276H24.7009V19.3175C24.7009 18.4628 24.7012 17.6081 24.7005 16.7533C24.7003 16.6622 24.7002 16.5705 24.6894 16.4803C24.6584 16.2217 24.4909 16.046 24.2387 16.0187C23.932 15.9855 23.6385 16.0376 23.3954 16.1633C23.4043 16.5397 23.4178 16.8947 23.4198 17.2498C23.4235 17.945 23.4209 18.6402 23.4209 19.3354V19.5277H22.0829V19.331C22.0829 18.4762 22.0749 17.6215 22.0855 16.7668C22.0938 16.1014 21.7955 15.9285 21.1725 16.0379C20.7988 16.1035 20.8005 16.1132 20.8005 16.487C20.8005 17.4271 20.8005 18.3673 20.8005 19.3075V19.5217H19.4395V19.3157C19.4395 18.2102 19.4391 17.1047 19.4397 15.9993C19.44 15.4388 19.5823 15.2494 20.1256 15.1008C20.797 14.9169 21.4778 14.827 22.1687 14.9648C22.355 15.0019 22.5364 15.0825 22.7073 15.1684C22.7985 15.2144 22.8629 15.2241 22.956 15.1848C23.6143 14.9076 24.2946 14.8223 24.9937 14.9933C25.6074 15.1431 25.9918 15.5746 26.0144 16.2044C26.0457 17.0808 26.0352 17.9587 26.0418 18.8359C26.0433 19.0628 26.042 19.2895 26.042 19.5276Z" fill="#231F20"/>
<path d="M34.6942 17.2832V16.6174C34.6942 16.0072 34.6942 16.0072 34.0772 15.9525C33.6002 15.9103 33.2528 16.1415 33.1316 16.6028C33.0197 17.0282 33.0203 17.46 33.1344 17.885C33.2614 18.3571 33.5847 18.5956 34.0735 18.5865C34.2203 18.5837 34.3664 18.5513 34.5134 18.54C34.652 18.5294 34.7034 18.4718 34.6982 18.3243C34.686 17.9777 34.6942 17.6302 34.6942 17.2832ZM34.6942 15.0981C34.6942 15.0192 34.6942 14.9589 34.6942 14.8986C34.6943 14.3404 34.6957 13.7823 34.6932 13.2241C34.6927 13.1348 34.7043 13.0733 34.8103 13.0563C35.2143 12.9916 35.6175 12.9212 36.0461 12.8486V13.0409C36.0461 14.8749 36.0466 16.7088 36.0459 18.5428C36.0456 19.068 35.9306 19.2284 35.4303 19.3822C34.778 19.5827 34.1101 19.6316 33.4374 19.5314C32.465 19.3867 31.8148 18.6546 31.7371 17.6333C31.7038 17.1946 31.7175 16.7581 31.8314 16.3279C32.06 15.4647 32.6747 14.9524 33.5656 14.9344C33.8681 14.9283 34.1725 15.0007 34.4754 15.0409C34.5409 15.0495 34.6042 15.0741 34.6942 15.0981Z" fill="#231F20"/>
<path d="M29.7047 17.6261C29.3142 17.6261 28.9549 17.6028 28.6002 17.6329C28.2764 17.6606 28.0916 17.9133 28.1073 18.2234C28.1219 18.5109 28.3302 18.7282 28.6559 18.7124C28.9817 18.6966 29.3046 18.6146 29.6276 18.5548C29.6579 18.5493 29.7006 18.4956 29.7013 18.4634C29.7072 18.1855 29.7047 17.9073 29.7047 17.6261ZM29.677 16.8095C29.7212 16.1256 29.51 15.9002 28.8579 15.9185C28.3185 15.9336 27.7984 16.055 27.2899 16.2306C27.2369 16.2489 27.183 16.2648 27.1047 16.2898C27.0611 15.9841 27.0166 15.6883 26.9802 15.3916C26.9769 15.3637 27.0193 15.311 27.0504 15.3011C27.7841 15.0655 28.5239 14.8592 29.3067 14.8996C29.4259 14.9057 29.5456 14.9179 29.6633 14.9383C30.5442 15.0908 30.9614 15.574 30.9686 16.4741C30.9767 17.4998 30.9706 18.5256 30.9705 19.5513C30.9705 19.5851 30.967 19.6188 30.964 19.6719C30.8139 19.6464 30.6688 19.6316 30.529 19.5961C29.9819 19.4569 29.4397 19.429 28.8794 19.5491C28.4778 19.635 28.0622 19.6059 27.6648 19.4687C27.1102 19.2772 26.8101 18.8645 26.7928 18.2722C26.7749 17.6682 27.0378 17.2437 27.5779 17.016C27.9462 16.8606 28.3374 16.8207 28.7315 16.8111C29.0432 16.8035 29.3553 16.8095 29.677 16.8095Z" fill="#231F20"/>
<path d="M0.00250244 6H17.3374V11.7441H0.00250244V6Z" fill="#289BD7"/>
<path d="M0.00250244 13.8306H17.3374V19.5746H0.00250244V13.8306Z" fill="#86B840"/>
</g>
<defs>
<clipPath id="clip0_7895_31525">
<rect width="41" height="26" fill="white"/>
</clipPath>
</defs>
</svg>
