<svg width="20" height="20" viewBox="0 0 20 20" fill="none" xmlns="http://www.w3.org/2000/svg">
<path fill-rule="evenodd" clip-rule="evenodd" d="M7.51253 16.75C7.48343 16.75 7.45777 16.7615 7.44061 16.7784C7.42382 16.7949 7.4165 16.8149 7.4165 16.8333C7.4165 16.8517 7.42382 16.8717 7.44061 16.8883C7.45777 16.9052 7.48343 16.9167 7.51253 16.9167C7.54163 16.9167 7.56729 16.9052 7.58445 16.8883C7.60123 16.8717 7.60855 16.8517 7.60855 16.8333C7.60855 16.8149 7.60123 16.7949 7.58445 16.7784C7.56729 16.7615 7.54163 16.75 7.51253 16.75ZM6.38799 15.7098C6.68815 15.4141 7.09287 15.25 7.51253 15.25C7.93219 15.25 8.33691 15.4141 8.63707 15.7098C8.9376 16.0058 9.10855 16.4097 9.10855 16.8333C9.10855 17.2569 8.9376 17.6609 8.63707 17.9569C8.33691 18.2526 7.93219 18.4167 7.51253 18.4167C7.09287 18.4167 6.68815 18.2526 6.38799 17.9569C6.08745 17.6609 5.9165 17.2569 5.9165 16.8333C5.9165 16.4097 6.08745 16.0058 6.38799 15.7098Z" fill="#404553"/>
<path fill-rule="evenodd" clip-rule="evenodd" d="M3.14355 3.25685C3.05653 3.25047 2.93815 3.25 2.72673 3.25H2.5C2.08579 3.25 1.75 2.91422 1.75 2.5C1.75 2.08579 2.08579 1.75 2.5 1.75H2.72673C2.73396 1.75 2.74118 1.75 2.74838 1.75C2.9302 1.74998 3.1046 1.74997 3.25323 1.76086C3.4169 1.77286 3.60046 1.80061 3.78957 1.88223L3.79465 1.88442C4.06078 2.00161 4.2948 2.1903 4.4643 2.43633C4.58328 2.60732 4.64591 2.78359 4.68824 2.94175C4.72686 3.08608 4.75868 3.25725 4.79133 3.4329C4.79247 3.43906 4.79362 3.44522 4.79477 3.45139C4.79473 3.45118 4.79481 3.45161 4.79477 3.45139L4.94447 4.25L16.0562 4.25C16.322 4.24998 16.5678 4.24996 16.7708 4.26762C16.9859 4.28632 17.2381 4.32999 17.4788 4.4721C17.8101 4.66658 18.0613 4.97458 18.1825 5.34122L18.183 5.34285C18.2714 5.61213 18.257 5.87041 18.2266 6.08387C18.1982 6.28293 18.1431 6.51862 18.0841 6.77115L16.7541 12.4451C16.7522 12.4547 16.7502 12.4644 16.7479 12.474C16.742 12.499 16.7361 12.5246 16.7301 12.5506C16.6646 12.8347 16.5875 13.1691 16.3902 13.4363C16.2199 13.6669 15.9905 13.8467 15.7272 13.9577L15.7256 13.9584C15.4213 14.0859 15.0779 14.0847 14.7815 14.0835C14.7544 14.0834 14.7276 14.0833 14.7014 14.0833H5.8841C5.52318 14.0833 5.21344 13.8263 5.14694 13.4715L3.32018 3.7263C3.28217 3.52197 3.26074 3.40994 3.23922 3.32951C3.23266 3.30499 3.22767 3.2899 3.22474 3.28176C3.21955 3.27576 3.2121 3.26918 3.20191 3.26322C3.19233 3.26161 3.17399 3.25908 3.14355 3.25685ZM5.22565 5.75L6.50657 12.5833H14.7014C14.9037 12.5833 15.0161 12.5829 15.0988 12.5769C15.1276 12.5749 15.1448 12.5725 15.1537 12.5711C15.1626 12.5661 15.1703 12.5601 15.1766 12.5535C15.1799 12.5455 15.1853 12.5311 15.1926 12.5079C15.2155 12.4351 15.2397 12.335 15.2815 12.1571C15.2834 12.1476 15.2854 12.1382 15.2876 12.1288L16.6157 6.46266C16.6841 6.17009 16.7235 5.99888 16.7415 5.87239C16.747 5.8344 16.7489 5.80923 16.7496 5.79413C16.745 5.78694 16.7389 5.78006 16.7314 5.77395C16.7171 5.77099 16.6888 5.76615 16.6408 5.76197C16.5109 5.75067 16.3316 5.75 16.0279 5.75H5.22565Z" fill="#404553"/>
<path fill-rule="evenodd" clip-rule="evenodd" d="M14.1795 16.75C14.1504 16.75 14.1248 16.7615 14.1076 16.7784C14.0908 16.7949 14.0835 16.8149 14.0835 16.8333C14.0835 16.8517 14.0908 16.8717 14.1076 16.8883C14.1248 16.9052 14.1504 16.9167 14.1795 16.9167C14.2086 16.9167 14.2343 16.9052 14.2514 16.8883C14.2682 16.8717 14.2755 16.8517 14.2755 16.8333C14.2755 16.8149 14.2682 16.7949 14.2514 16.7784C14.2343 16.7615 14.2086 16.75 14.1795 16.75ZM13.055 15.7098C13.3551 15.4141 13.7599 15.25 14.1795 15.25C14.5992 15.25 15.0039 15.4141 15.3041 15.7098C15.6046 16.0058 15.7755 16.4097 15.7755 16.8333C15.7755 17.2569 15.6046 17.6609 15.3041 17.9569C15.0039 18.2526 14.5992 18.4167 14.1795 18.4167C13.7599 18.4167 13.3551 18.2526 13.055 17.9569C12.7544 17.6609 12.5835 17.2569 12.5835 16.8333C12.5835 16.4097 12.7544 16.0058 13.055 15.7098Z" fill="#404553"/>
</svg>
