<svg width="24" height="24" viewBox="0 0 24 24" fill="none" xmlns="http://www.w3.org/2000/svg">
<g clip-path="url(#clip0_3912_7342)">
<path d="M0 11.874C0 5.316 5.304 0 11.846 0C18.388 0 23.692 5.317 23.692 11.875C23.692 18.435 18.388 23.751 11.846 23.751C5.304 23.751 0 18.433 0 11.874Z" fill="#FEEE00"/>
<path d="M16.5226 7.71775C16.573 7.66007 16.6116 7.59301 16.6361 7.52042C16.6607 7.44782 16.6707 7.3711 16.6655 7.29465C16.6604 7.21819 16.6403 7.14349 16.6063 7.07481C16.5723 7.00613 16.5251 6.94482 16.4675 6.89437C16.4098 6.84393 16.3427 6.80534 16.2701 6.78081C16.1975 6.75628 16.1208 6.74629 16.0444 6.75141C15.9679 6.75653 15.8932 6.77666 15.8245 6.81065C15.7558 6.84463 15.6945 6.89182 15.6441 6.9495L12.6632 10.3562L10.1333 6.98333C10.079 6.91089 10.0085 6.85208 9.92754 6.81158C9.84654 6.77108 9.75723 6.75 9.66667 6.75H7.33333C7.225 6.75 7.11881 6.78017 7.02666 6.83712C6.9345 6.89407 6.86003 6.97556 6.81158 7.07246C6.76314 7.16935 6.74263 7.27783 6.75236 7.38572C6.76209 7.49361 6.80167 7.59667 6.86667 7.68333L10.6216 12.6895L7.47742 16.2828C7.42697 16.3405 7.38838 16.4076 7.36385 16.4802C7.33932 16.5528 7.32933 16.6295 7.33445 16.7059C7.33957 16.7824 7.3597 16.8571 7.39369 16.9258C7.42768 16.9945 7.47486 17.0558 7.53254 17.1062C7.59022 17.1567 7.65728 17.1952 7.72988 17.2198C7.80247 17.2443 7.87919 17.2543 7.95565 17.2492C8.0321 17.2441 8.1068 17.2239 8.17548 17.1899C8.24416 17.1559 8.30547 17.1088 8.35592 17.0511L11.3368 13.6438L13.8667 17.0167C13.921 17.0891 13.9915 17.1479 14.0725 17.1884C14.1535 17.2289 14.2428 17.25 14.3333 17.25H16.6667C16.775 17.25 16.8812 17.2198 16.9733 17.1629C17.0655 17.1059 17.14 17.0244 17.1884 16.9275C17.2369 16.8306 17.2574 16.7222 17.2476 16.6143C17.2379 16.5064 17.1983 16.4033 17.1333 16.3167L13.3784 11.3105L16.5226 7.71775Z" fill="#404553"/>
</g>
<defs>
<clipPath id="clip0_3912_7342">
<rect width="24" height="24" fill="white"/>
</clipPath>
</defs>
</svg>
