<svg width="200" height="60" viewBox="0 0 200 60" fill="none" xmlns="http://www.w3.org/2000/svg">
<rect width="200" height="60" rx="10" fill="#2122B8"/>
<path fill-rule="evenodd" clip-rule="evenodd" d="M172.412 41.3605H176.774L178.447 39.69V10H172.412V41.3605ZM33.5013 37.5638L29.7785 41.2867H17.7228L14 37.5638V34.1801H19.669V36.8027H27.4932V34.8565L14.1282 27.5804V22.0395L17.8076 18.3167H29.3979L33.9233 22.0395V25.6775L28.836 25.6578V22.7809L20.0909 22.8006V24.7468L33.5013 32.0229V37.5638ZM65.2666 18.3185H73.5147L77.2355 22.0394V37.5657L73.5147 41.2865H63.3618V48.324L61.6857 50.0001H57.3142V18.3185H62.6874V20.943L65.2666 18.3185ZM63.3638 35.7851H71.1465V23.9442H64.9294L63.3638 25.3383V35.7851ZM47.0788 41.2867L49.6599 38.6641V41.2867H55.0311V18.3167H48.9816V34.2649L47.4179 35.661H41.2422V18.3167H35.1926V37.5638L38.9154 41.2867H47.0788ZM79.1038 22.0395L82.7832 18.3167H94.7975L98.4769 22.0395V30.9227H85.0251V36.3787H92.6383V33.2908H98.4749V37.5638L94.7955 41.2867H82.7832L79.1038 37.5638V22.0395ZM85.0251 27.8781H92.6383V23.2246H85.0251V27.8781ZM108.711 18.3167L105.623 21.4046V18.3167H100.254V41.2847H104.641L106.301 39.6264V25.7623L108.078 24.1119H113.873V18.3167H108.711ZM136.491 18.4412L134.335 20.5938L132.182 18.4412H123.91L121.337 21.0601V18.4412H115.975V41.3604H122.009V25.45L123.572 24.0549H129.693V41.3604H135.73V25.6821L137.355 24.0549H143.244V41.3604H149.279V22.1581L145.566 18.4412H136.491ZM164.475 23.6337H158.635V23.6356L156.96 25.3101V25.8729H151.262V22.1579L154.977 18.443H166.584L170.299 22.1579V41.3642H165.234V38.7059L162.617 41.3642H154.682L150.967 37.6493V32.0769L154.682 28.3619H164.475V23.6337ZM162.956 36.5926L164.475 35.2842V31.6125H156.793V36.5926H162.956ZM184.92 41.3605H180.556V10H186.595V39.69L184.92 41.3605Z" fill="#FCEA03"/>
</svg>
