<svg width="127" height="80" viewBox="0 0 127 80" fill="none" xmlns="http://www.w3.org/2000/svg">
<path d="M75.4062 0.00219727H64.9536L61.6859 3.3274V0.00219727H54.8782V40.1419H60.4168L62.5403 38.0184V29.1021H75.4037L80.1179 24.3878V4.71644L75.4037 0.00219727H75.4062ZM72.4033 22.1319H62.5428V8.89605L64.5264 7.12977H72.4033V22.1344V22.1319Z" fill="#FCEA03"/>
<path d="M19.9909 29.1024L24.7076 24.3856V17.3655L7.71706 8.14686V5.68107L18.7967 5.65609V9.30107L25.2422 9.32605V4.71673L19.5087 0H4.8241L0.162386 4.71673V11.7369L17.0954 20.9555V23.4213H7.18244V20.0986H0V24.3856L4.71667 29.1024H19.9909Z" fill="#FCEA03"/>
<path d="M41.9105 29.1024L45.1807 25.7797V29.1024H51.9858V0H44.3213V20.206L42.3401 21.9748H34.5157V0H26.8511V24.3856L31.5677 29.1024H41.9105Z" fill="#FCEA03"/>
<path d="M87.1458 0L82.4841 4.71673V24.3856L87.1458 29.1024H102.365L107.027 24.3856V18.9719H99.632V22.8842H89.9863V15.9715H107.029V4.71673L102.368 0H87.1458ZM99.632 12.1141H89.9863V6.2182H99.632V12.1141Z" fill="#FCEA03"/>
<path d="M119.995 0L116.083 3.91229V0H109.28V29.0999H114.839L116.942 26.9988V9.43347L119.193 7.34242H126.535V0H119.995Z" fill="#FCEA03"/>
<path d="M26.0491 50.8955L23.3111 53.6286L20.578 50.8955H10.0754L6.8077 54.2207V50.8955H0V79.9954H7.6621V59.7944L9.6457 58.0231H17.4177V79.9954H25.0823V60.0892L27.1459 58.0231H34.6231V79.9954H42.2852V55.6147L37.571 50.8955H26.0491Z" fill="#FCEA03"/>
<path d="M54.1636 57.4881H61.5784V63.4915H49.1447L44.428 68.2082V75.2833L49.1447 80.0001H59.22L62.5427 76.6249V80.0001H68.9732V55.6144L64.2565 50.8977H49.5194L44.8027 55.6144V60.3312H52.0376V59.6167L54.1636 57.4906V57.4881ZM61.5784 72.2804L59.6497 73.9418H51.8253V67.6186H61.5784V72.2804Z" fill="#FCEA03"/>
<path d="M71.6575 79.9954H77.1961L79.3196 77.8744V40.178H71.6575V79.9954Z" fill="#FCEA03"/>
<path d="M81.9976 79.9954H87.5386L89.6647 77.8744V40.178H81.9976V79.9954Z" fill="#FCEA03"/>
</svg>
