<svg width="20" height="21" viewBox="0 0 20 21" fill="none" xmlns="http://www.w3.org/2000/svg">
<path d="M4 3.3623H13.1913M4 13.5973H6.62608" stroke="#404553" stroke-width="1.5"/>
<path fill-rule="evenodd" clip-rule="evenodd" d="M4.56274 3.3623C4.56274 2.94809 4.89853 2.6123 5.31274 2.6123H11.8779C12.2922 2.6123 12.6279 2.94809 12.6279 3.3623V5.4093C12.6279 6.45272 11.8806 7.23115 11.2922 7.74096C11.024 7.97329 10.7382 8.19088 10.4906 8.37942L10.4906 8.37943L10.3698 8.47152C10.3613 8.47801 10.3529 8.48445 10.3445 8.49083C10.38 8.51721 10.4168 8.54447 10.4549 8.57269L10.4549 8.57271C10.5295 8.62797 10.6091 8.68697 10.6939 8.75048C10.779 8.81417 10.8667 8.88068 10.9552 8.94962L11.0256 9.00438C11.0674 9.03686 11.1033 9.06472 11.1301 9.08609C11.1751 9.12206 11.2297 9.16725 11.286 9.22718C11.3313 9.2755 11.3697 9.32572 11.3911 9.35367L11.3911 9.35368L11.3969 9.36119C11.4222 9.39411 11.4551 9.43685 11.51 9.50382L11.9852 10.084L10.8248 11.0345L10.3495 10.4543C10.2809 10.3704 10.2375 10.3141 10.2078 10.2756L10.195 10.259L10.194 10.2582C10.1749 10.2429 10.1525 10.2255 10.1191 10.1996L10.1191 10.1996L10.0328 10.1325C9.95463 10.0716 9.87528 10.0114 9.79503 9.95129C9.73475 9.90617 9.67166 9.85956 9.6071 9.81187L9.60708 9.81186C9.48793 9.72384 9.36375 9.63211 9.24295 9.53913L9.24241 9.53972L9.23605 9.53382C9.06386 9.40108 8.89886 9.26589 8.76543 9.13542L8.5861 8.96006L8.40669 9.13551C8.18315 9.3541 7.88745 9.57306 7.62435 9.76782L7.59351 9.79064C7.32366 9.99035 7.06103 10.1847 6.82021 10.3938C6.29089 10.8534 6.06289 11.2214 6.06289 11.5495L6.06289 12.8465H7.1651H7.9151V14.3465H7.1651H5.31289C4.89868 14.3465 4.56289 14.0107 4.56289 13.5965L4.56289 11.5495C4.56289 10.5174 5.26082 9.76121 5.83682 9.26113C6.12316 9.01253 6.4286 8.78657 6.68796 8.59471L6.73189 8.5622L6.8414 8.48089L6.83609 8.47681C6.79124 8.4424 6.74446 8.40673 6.69619 8.36992L6.69618 8.36991C6.45487 8.1859 6.1761 7.97333 5.91415 7.74742C5.32505 7.2394 4.56274 6.45632 4.56274 5.4093V3.3623ZM8.59435 8.03328L8.65366 7.96941C8.87798 7.72787 9.18416 7.48985 9.45858 7.28L9.58806 7.18122C9.83728 6.99135 10.0807 6.80593 10.3099 6.60727C10.8852 6.10885 11.1279 5.72599 11.1279 5.4093V4.1123H6.06274V5.4093C6.06274 5.72239 6.3096 6.10771 6.89376 6.61148C7.11831 6.80513 7.3543 6.98521 7.59508 7.16894L7.59508 7.16894C7.64624 7.20798 7.69762 7.24718 7.74915 7.28671C8.02111 7.49536 8.32772 7.73526 8.54642 7.97971L8.59435 8.03328Z" fill="#404553"/>
<path d="M14.6675 13.5961C14.6675 15.3248 13.2238 16.7591 11.4015 16.7591C9.57925 16.7591 8.1355 15.3248 8.1355 13.5961C8.1355 11.8675 9.57925 10.4331 11.4015 10.4331C13.2238 10.4331 14.6675 11.8675 14.6675 13.5961Z" stroke="#404553" stroke-width="1.5"/>
<path d="M11.426 11.4189V13.9439L12.8426 14.883" stroke="#404553" stroke-width="1.5"/>
</svg>
