<svg width="20" height="20" viewBox="0 0 20 20" fill="none" xmlns="http://www.w3.org/2000/svg">
<path fill-rule="evenodd" clip-rule="evenodd" d="M11.4677 3.58772C11.9769 3.36438 12.5244 3.24878 13.0783 3.24878C13.6323 3.24878 14.1797 3.36438 14.6889 3.58772C15.1979 3.81097 15.6575 4.13692 16.0427 4.54473M13.0783 4.74878C12.7336 4.74878 12.3912 4.82061 12.0702 4.9614C11.7491 5.10224 11.4545 5.30993 11.2044 5.57481L10.545 6.27277C10.4033 6.42274 10.2061 6.50773 9.99983 6.50773C9.79352 6.50773 9.59632 6.42274 9.45464 6.27277L8.79541 5.57493C8.29071 5.04068 7.61561 4.74913 6.92135 4.74913C6.22708 4.74913 5.55198 5.04068 5.04728 5.57493C4.54122 6.11063 4.25 6.84586 4.25 7.62082C4.25 8.39577 4.54122 9.131 5.04728 9.6667L9.99983 14.9092L14.9524 9.6667C15.2027 9.40186 15.4035 9.08501 15.5411 8.73347C15.6787 8.38187 15.75 8.00367 15.75 7.62082C15.75 7.23796 15.6787 6.85976 15.5411 6.50817C15.4035 6.15662 15.2028 5.8399 14.9525 5.57506C14.7024 5.31019 14.4075 5.10224 14.0864 4.9614C13.7654 4.82061 13.423 4.74878 13.0783 4.74878ZM16.0427 4.54473C16.4278 4.95234 16.7315 5.43425 16.9379 5.96141C17.1442 6.48864 17.25 7.0524 17.25 7.62082C17.25 8.18924 17.1442 8.75299 16.9379 9.28022C16.7315 9.80744 16.428 10.2891 16.0428 10.6968L10.545 16.5164C10.4033 16.6664 10.2061 16.7514 9.99983 16.7514C9.79352 16.7514 9.59632 16.6664 9.45464 16.5164L3.95689 10.6968C3.17971 9.87407 2.75 8.76692 2.75 7.62082C2.75 6.47471 3.17971 5.36756 3.95689 4.54486C4.73545 3.72072 5.80082 3.24913 6.92135 3.24913C8.04187 3.24913 9.10724 3.72072 9.8858 4.54486L9.99983 4.66558L10.1138 4.54499C10.4989 4.13711 10.9587 3.811 11.4677 3.58772" fill="#404553"/>
</svg>
